# xmcd CD database file
#
# Track frame offsets:
#	150
#	15526
#	31716
#	48029
#	65336
#	79890
#	91636
#	105018
#	127070
#	143687
#	158659
#
# Disc length: 2345 seconds
#
# Revision: 0
# Processed by: cddbd v1.5.2PL0 Copyright (c) Steve Scherf et al.
# Submitted via: CdAid (MTCDDB.DLL V2003.12.21)
#
DISCID=7109270b
DTITLE=Almir Arantes - Rítmo de Forró
DYEAR=1995
DGENRE=Folk
TTITLE0=Quando um grande amor se faz (Cantare e D'amore)
TTITLE1=A maior loucura
TTITLE2=Minha primeira flor
TTITLE3=Depois do prazer
TTITLE4=Raios de neon (I will survive)
TTITLE5=Homenagem ao Ceará
TTITLE6=Talvez você se lembre
TTITLE7=O que mais você quer de mim
TTITLE8=Amor de pantera
TTITLE9=Sonhos nada mais
TTITLE10=Disso que o velho gosta
EXTD=ID3G:  80 YEAR: 1995
EXTT0=
EXTT1=
EXTT2=
EXTT3=
EXTT4=
EXTT5=
EXTT6=
EXTT7=
EXTT8=
EXTT9=
EXTT10=
PLAYORDER=
